<svg width="512" height="512" viewBox="0 0 512 512" fill="none" xmlns="http://www.w3.org/2000/svg">
<path d="M282.899 197.949C282.899 223.878 286.132 220.959 255.958 220.851C227.4 220.851 229.017 223.878 229.017 197.949C229.017 172.02 241.079 151 255.958 151C270.837 151 282.899 172.02 282.899 197.949Z" fill="black"/>
<path d="M230.253 106.867C252.226 161.991 248.253 179.054 248.253 186.461C238.253 180.054 241.253 125.961 201.253 80.2377C190.253 61.9606 140.753 66.7376 170.253 49.2379C188.253 41.7376 215.253 69.2377 230.253 106.867Z" fill="black"/>
<path d="M281.28 106.867C259.307 161.991 263.28 179.054 263.28 186.461C273.28 180.054 270.28 125.961 310.28 80.2377C321.28 61.9606 370.78 66.7376 341.28 49.2379C323.28 41.7376 296.28 69.2377 281.28 106.867Z" fill="black"/>
<path d="M29.7917 54.9926C76.3443 38.0566 204.986 133.152 226.829 186.13C228.864 191.066 229.609 196.456 228.883 201.726C229.209 208.654 229.079 216.463 229.079 223.931C229.079 248.59 214.102 295.654 199.022 322.287C203.14 329.918 208.725 337.965 216.079 346.431C205.504 362.901 190.302 402.931 158.579 402.931C145.324 402.931 132.327 398.239 120.518 390.345C113.777 393.586 107.297 400.467 102.345 414.378C91.551 444.705 78.3456 453.652 56.1325 459.826C56.1324 446.325 53.8458 419.651 92.3454 393.652C98.923 387.074 102.412 381.488 104.284 376.771C84.743 356.831 70.9462 328.193 68.9997 300.614C68.9998 275.76 81.4406 257.82 104.291 244.658C96.7897 244.588 89.5964 244.493 82.9381 244.493C68.2272 244.493 39.1035 227.026 36.1764 176.851C35.8533 171.313 35.494 165.727 34.1667 160.341C21.9094 110.601 -13.2358 70.6463 29.7917 54.9926Z" fill="black"/>
<path d="M482.363 59.9925C435.81 43.0566 307.168 138.154 285.326 191.131C283.291 196.067 282.546 201.457 283.271 206.727C282.946 213.654 283.076 221.463 283.076 228.931C283.076 253.59 298.053 300.654 313.133 327.287C309.015 334.918 303.43 342.965 296.076 351.431C306.65 367.901 321.852 407.931 353.576 407.931C366.831 407.931 379.828 403.24 391.637 395.346C398.378 398.587 404.858 405.468 409.809 419.379C420.604 449.706 433.809 458.653 456.022 464.826C456.022 451.327 458.309 424.653 419.809 398.653C413.232 392.075 409.743 386.489 407.871 381.772C427.412 361.832 441.209 333.193 443.155 305.614C443.155 280.761 430.715 262.821 407.866 249.659C415.367 249.589 422.56 249.493 429.218 249.493C443.929 249.492 473.051 232.025 475.978 181.851C476.301 176.313 476.662 170.728 477.989 165.342C490.246 115.602 525.391 75.6462 482.363 59.9925Z" fill="black"/>
<path d="M274.333 221C277.485 243.62 279.705 255.65 284.713 275.596C291.754 299.374 295.779 309.916 303 327.288C277.665 373.077 269.446 401.147 260 451V324.495C266.901 322.719 272 316.455 272 309C272 300.163 264.837 293 256 293C247.163 293 240 300.163 240 309C240 316.455 245.099 322.719 252 324.495V451C242.335 401.147 233.924 373.077 208 327.288C215.389 309.916 219.508 299.374 226.713 275.596C231.837 255.65 234.108 243.62 237.333 221H274.333Z" fill="black"/>
<path d="M154.514 124.701L149.343 146.442H161V160.742H145.942L141.634 178.856H155.923V193.156H138.233L132.613 216.787L120.354 213.086L125.094 193.156H109.464L103.844 216.787L91.584 213.086L96.3232 193.156H84V178.856H99.7246L104.032 160.742H89.0771V146.442H107.434L113.484 121L125.744 124.701L120.573 146.442H136.203L142.254 121L154.514 124.701ZM117.173 160.742L112.865 178.856H128.494L132.802 160.742H117.173Z" fill="#80FFDB"/>
<path d="M374.293 278.311L371.339 291.88H378V300.806H369.396L366.934 312.112H375.099V321.038H364.99L361.779 335.787L354.773 333.477L357.481 321.038H348.551L345.34 335.787L338.334 333.477L341.042 321.038H334V312.112H342.985L345.447 300.806H336.901V291.88H347.391L350.849 276L357.854 278.311L354.899 291.88H363.83L367.288 276L374.293 278.311ZM352.956 300.806L350.494 312.112H359.425L361.887 300.806H352.956Z" fill="#F9FFC9"/>
<path d="M418.293 278.311L415.339 291.88H422V300.806H413.396L410.934 312.112H419.099V321.038H408.99L405.779 335.787L398.773 333.477L401.481 321.038H392.551L389.34 335.787L382.334 333.477L385.042 321.038H378V312.112H386.985L389.447 300.806H380.901V291.88H391.391L394.849 276L401.854 278.311L398.899 291.88H407.83L411.288 276L418.293 278.311ZM396.956 300.806L394.494 312.112H403.425L405.887 300.806H396.956Z" fill="#F9FFC9"/>
</svg>
